<svg width="173" height="173" viewBox="0 0 173 173" fill="none" xmlns="http://www.w3.org/2000/svg">
<g id="content_copy">
<mask id="mask0_191_1127" style="mask-type:alpha" maskUnits="userSpaceOnUse" x="0" y="0" width="173" height="173">
<rect id="Bounding box" width="173" height="173" fill="white"/>
</mask>
<g mask="url(#mask0_191_1127)">
<path id="whatsapp" fill-rule="evenodd" clip-rule="evenodd" d="M147.05 24.8688C130.831 8.65 109.206 0 86.5 0C38.925 0 0 38.925 0 86.5C0 101.637 4.32507 116.775 11.8938 129.75L0 173L45.4126 161.106C58.3876 167.594 72.4437 171.919 86.5 171.919C134.075 171.919 173 132.994 173 85.4187C173 62.7125 163.269 41.0875 147.05 24.8688ZM86.5 157.863C73.525 157.863 60.5501 154.619 49.7376 148.131L47.5749 147.05L20.5437 154.619L28.1126 128.669L25.9499 125.425C18.3812 113.531 15.1374 100.556 15.1374 87.5813C15.1374 48.6563 47.575 16.2188 86.5 16.2188C105.963 16.2188 123.263 23.7875 137.319 36.7625C151.375 50.8187 157.863 68.1188 157.863 87.5813C157.863 125.425 126.506 157.863 86.5 157.863ZM125.425 103.8C123.263 102.719 112.45 97.3125 110.288 97.3125C108.125 96.2312 107.044 96.2313 105.962 98.3938C104.881 100.556 100.556 104.881 99.4751 107.044C98.3939 108.125 97.3124 108.125 95.1499 108.125C92.9874 107.044 86.5001 104.881 77.8501 97.3125C71.3626 91.9062 67.0376 84.3375 65.9563 82.175C64.8751 80.0125 65.9564 78.9313 67.0376 77.85C68.1189 76.7687 69.2 75.6875 70.2812 74.6062C71.3625 73.525 71.3626 72.4438 72.4439 71.3625C73.5251 70.2813 72.4439 69.2 72.4439 68.1188C72.4439 67.0375 68.1188 56.225 65.9563 51.9C64.8751 48.6563 62.7126 48.6562 61.6314 48.6562C60.5501 48.6562 59.4686 48.6562 57.3061 48.6562C56.2249 48.6562 54.0624 48.6562 51.8999 50.8187C49.7374 52.9812 44.3313 58.3875 44.3313 69.2C44.3313 80.0125 51.8999 89.7438 52.9812 91.9062C54.0624 92.9875 68.1186 115.694 89.7436 124.344C108.125 131.913 111.369 129.75 115.694 129.75C120.019 129.75 128.669 124.344 129.75 120.019C131.913 114.613 131.913 110.288 130.831 110.288C129.75 104.881 127.588 104.881 125.425 103.8Z" fill="white"/>
</g>
</g>
</svg>
