<svg width="20" height="18" viewBox="0 0 20 18" fill="none" xmlns="http://www.w3.org/2000/svg">
<path fill-rule="evenodd" clip-rule="evenodd" d="M10.2884 14.2634L19.4067 5.03276C20.1984 4.23131 20.1984 2.92721 19.4032 2.12225L17.9032 0.60372C17.1115 -0.20124 15.8267 -0.20124 15.0316 0.60372L5.91332 9.8344L5.56609 13.0121C5.4654 13.94 6.23972 14.7169 7.14946 14.6149L10.2884 14.2634ZM15.0802 11.0014L13.9691 12.1263C13.917 12.179 13.8892 12.2493 13.8892 12.3231V16.3127H1.6667V3.93956H10.0523C10.1287 3.93956 10.1981 3.91144 10.2502 3.85871L11.3614 2.73388C11.535 2.55461 11.41 2.25231 11.1634 2.25231H1.6667C0.746544 2.25231 0 3.00806 0 3.93956V16.3127C0 17.2443 0.746544 18 1.6667 18H13.8892C14.8093 18 15.5559 17.2443 15.5559 16.3127V11.2018C15.5559 10.9487 15.2538 10.8257 15.0802 11.0014ZM15.976 6.11893L13.9586 4.07665L7.50711 10.6112L7.25363 12.9066L9.52104 12.65L15.976 6.11893ZM16.7261 1.79886L18.2261 3.31739C18.3685 3.4615 18.3685 3.6935 18.2296 3.84114L17.1566 4.92731L15.1392 2.88503L16.2122 1.79886C16.351 1.65474 16.5837 1.65474 16.7261 1.79886Z" fill="white"/>
</svg>
